<svg id="Capa_1" enable-background="new 0 0 512 512" height="512" viewBox="0 0 512 512" width="512" xmlns="http://www.w3.org/2000/svg"><g><path d="m452 256c0-9.462-.686-18.948-2.043-28.314l60.897-42.267-66.303-114.838-67.063 31.61c-14.952-11.843-31.379-21.344-49.033-28.359l-6.153-73.832h-66.302l-60 256 60 196c44.214 0 86.976-14.917 121.482-42.193l67.069 31.612 66.302-114.839-60.897-42.267c1.358-9.365 2.044-18.851 2.044-28.313z" fill="#4175df"/><path d="m189.698 0-6.153 73.832c-17.654 7.015-34.081 16.516-49.033 28.359l-67.063-31.61-66.303 114.838 60.897 42.267c-1.357 9.366-2.043 18.852-2.043 28.314s.686 18.948 2.043 28.314l-60.897 42.267 66.302 114.839 67.069-31.612c34.507 27.275 77.269 42.192 121.483 42.192v-452z" fill="#4086f4"/><path d="m278.5 121.863v96.927l-22.5 18-40 137.605 40 137.605h67.5v-137.909c40.925-23.444 68.5-67.546 68.5-118.091 0-67.445-49.098-123.413-113.5-134.137z" fill="#c6cfd5"/><path d="m233.5 218.791v-96.927c-64.402 10.723-113.5 66.691-113.5 134.136 0 50.545 27.575 94.647 68.5 118.091v137.909h67.5v-275.209z" fill="#e3e7ea"/></g></svg>