<svg height="512" viewBox="0 0 128 128" width="512" xmlns="http://www.w3.org/2000/svg" xmlns:xlink="http://www.w3.org/1999/xlink"><linearGradient id="a" gradientUnits="userSpaceOnUse" x1="109.343" x2="18.876" y1="109.121" y2="18.654"><stop offset="0" stop-color="#73c3f9"/><stop offset="1" stop-color="#ffc839"/></linearGradient><path d="m15.005 99.5a1.75 1.75 0 1 1 -2.832 2.056 64.024 64.024 0 0 1 74.7-97.346 1.75 1.75 0 1 1 -1.252 3.268 60.515 60.515 0 0 0 -70.616 92.022zm104.035-68.181a1.75 1.75 0 0 0 -3.008 1.79 60.507 60.507 0 0 1 -90.246 77.791 1.75 1.75 0 1 0 -2.213 2.712 64.009 64.009 0 0 0 95.467-82.3zm-19.64-16.391a60.92 60.92 0 0 1 6.645 5.566 1.751 1.751 0 0 0 2.434-2.517 64.772 64.772 0 0 0 -7.028-5.886 1.75 1.75 0 0 0 -2.051 2.837zm15.1 49.072a50.5 50.5 0 0 1 -101 0 1.75 1.75 0 0 0 -3.5 0 54 54 0 1 0 103.557-21.45 1.75 1.75 0 0 0 -3.211 1.4 50.047 50.047 0 0 1 4.154 20.05zm-50.5-9a9 9 0 1 1 -9 9 9.01 9.01 0 0 1 9-9zm0 3.5a5.5 5.5 0 1 0 5.5 5.5 5.506 5.506 0 0 0 -5.5-5.5zm38.16-30.186-9.388 9.386a38.981 38.981 0 0 1 -56.337 53.862 1.751 1.751 0 0 1 0-2.475l.013-.01.01-.012 9.4-9.4a23.987 23.987 0 0 1 35.116-32.64 1.75 1.75 0 0 1 -2.474 2.475 20.5 20.5 0 0 0 -29.043 28.94c.017.017.038.028.055.045s.028.038.045.055a20.486 20.486 0 0 0 34.932-14.54 1.75 1.75 0 0 1 1.75-1.75h13.217a35.4 35.4 0 0 0 -10.362-23.34 35.491 35.491 0 0 0 -57.529 39.516 1.75 1.75 0 0 1 -3.195 1.428 38.637 38.637 0 0 1 -3.37-15.854 38.978 38.978 0 0 1 65.3-28.775l8.124-8.125a50.448 50.448 0 0 0 -80.771 16.843 1.75 1.75 0 0 1 -3.211-1.395 53.967 53.967 0 0 1 87.724-16.717 1.748 1.748 0 0 1 0 2.474zm-2.7 37.436h-11.54a23.969 23.969 0 0 1 -39.59 16.392l-8.152 8.158a35.481 35.481 0 0 0 59.278-24.553z" fill="url(#a)"/></svg>